<?xml version="1.0" encoding="UTF-8" standalone="no"?>
<!DOCTYPE svg PUBLIC "-//W3C//DTD SVG 1.1//EN" "http://www.w3.org/Graphics/SVG/1.1/DTD/svg11.dtd">
<svg width="100%" height="100%" viewBox="0 0 889 1282" version="1.1" xmlns="http://www.w3.org/2000/svg" xmlns:xlink="http://www.w3.org/1999/xlink" xml:space="preserve" xmlns:serif="http://www.serif.com/" style="fill-rule:evenodd;clip-rule:evenodd;stroke-linejoin:round;stroke-miterlimit:2;">
    <g transform="matrix(1,0,0,1,-1021.15,-2954)">
        <g id="Artboard4" transform="matrix(0.555533,0,0,0.915776,1015.1,248.235)">
            <rect x="10.886" y="2954.62" width="1600" height="1399.91" style="fill:none;"/>
            <g id="Layer3" transform="matrix(2.01396,0,0,1.22172,-474.383,2933.17)">
                <g transform="matrix(2.40999,0,0,2.40999,905.945,861.129)">
                    <path d="M-56.453,-170.022C-65.658,-171.481 -104.025,-168.193 -146.069,-126.154C-146.871,-125.352 -150.376,-121.589 -157.134,-120.501C-174.522,-117.7 -220.525,-108.857 -238.848,-71.728C-256.657,-35.639 -235.382,3.674 -227.257,17.211C-204.51,55.11 -162.627,91.113 -128.969,102.696C-107.41,110.115 -97.399,104.8 -93.992,102.721C-83.109,96.081 -79.242,81.781 -70.834,69.787C-67.7,65.316 -60.451,55.848 -46.117,50.735C-27.55,44.114 -14.429,52.024 -1.92,49.833C18.366,46.28 26.421,15.422 24.862,-21.489C22.5,-77.422 -1.148,-143.006 -39.251,-163.9C-47.206,-168.263 -53.7,-169.519 -56.453,-170.022Z" style="fill:white;fill-opacity:0;stroke:white;stroke-width:37.78px;"/>
                </g>
                <g transform="matrix(3.22272,0.00100905,-0.00100905,3.22272,571.283,261.383)">
                    <path d="M0,33.697L-34.09,59.254L-37.018,55.365C-50.083,37.857 -46.568,13.061 -29.078,0.005L5.029,-25.557L7.908,-21.651C21.022,-4.161 17.492,20.586 0,33.697" style="fill:white;fill-rule:nonzero;stroke:white;stroke-width:0.28px;stroke-linecap:round;"/>
                </g>
                <g transform="matrix(2.92359,0,0,5.50431,987.874,-126.509)">
                    <path d="M0,102.873L7.945,38.416L15.888,102.873C16.17,115.461 -0.576,115.462 0,102.873Z" style="fill:white;fill-rule:nonzero;"/>
                    <path d="M15.63,98.263C16.022,101.488 16.059,102.259 16.042,103.454C15.965,108.775 12.534,112.191 8.18,112.388C5.815,112.495 3.628,111.543 2.213,110.064C-0.204,107.537 -0.204,104.305 -0.153,102.868C7.779,38.584 7.597,38.555 7.816,38.372C7.894,38.307 8.088,38.333 8.097,38.411C8.812,44.213 9.464,49.469 10.057,54.233C9.383,50.173 8.674,45.447 7.945,39.653L0.153,102.875L0.153,102.878C0.127,103.601 -0.208,108.732 4.095,111.243C7.394,113.168 12.223,112.321 14.499,108.32C14.6,108.142 15.793,106.21 15.738,103.021C15.709,101.352 15.673,99.769 15.63,98.263ZM15.63,98.263C15.017,93.226 13.54,82.204 10.057,54.233C12.812,70.819 14.995,76.313 15.63,98.263Z" style="fill:white;"/>
                </g>
                <g transform="matrix(2.92359,0,0,4.94451,743.947,-222.346)">
                    <path d="M0,102.873L7.945,48.7L15.888,102.873C16.17,115.461 -0.576,115.462 0,102.873Z" style="fill:white;fill-rule:nonzero;"/>
                    <path d="M15.649,99.231C16.125,102.739 16.103,103.536 15.94,104.832C15.308,109.843 11.395,112.748 7.096,112.371C3.802,112.082 -0.287,109.521 -0.163,103.165L-0.152,102.865C7.773,48.882 7.596,48.849 7.817,48.65C7.896,48.579 8.085,48.608 8.097,48.692C8.805,53.522 9.453,57.91 10.046,61.899C9.373,58.51 8.668,54.567 7.945,49.741L0.153,102.875C0.116,103.91 -0.082,108.369 3.603,110.928C6.249,112.766 10.501,112.854 13.381,109.835C14.945,108.196 15.785,105.74 15.738,103.021C15.715,101.695 15.685,100.434 15.649,99.231ZM15.649,99.231C15.001,94.468 13.432,84.704 10.046,61.899C12.839,75.969 15.076,80.518 15.649,99.231Z" style="fill:white;"/>
                </g>
                <g transform="matrix(2.92359,0,0,5.269,241.788,-24.5161)">
                    <path d="M0,102.873L7.945,31.601L15.888,102.873C16.17,115.461 -0.576,115.462 0,102.873Z" style="fill:white;fill-rule:nonzero;"/>
                    <path d="M-0.153,102.868C7.78,31.777 7.597,31.747 7.816,31.555C7.894,31.487 8.088,31.514 8.097,31.595C15.741,100.158 16.09,100.151 16.042,103.455C15.961,109.04 12.199,112.439 7.736,112.398C5.335,112.377 3.198,111.278 1.869,109.685C-0.179,107.231 -0.205,104.327 -0.153,102.868ZM0.153,102.878C0.107,104.184 0.041,107.909 2.989,110.461C5.773,112.871 10.339,112.907 13.238,109.985C15.772,107.433 15.744,103.916 15.738,103.02C15.722,100.54 15.464,100.53 7.945,32.976L0.153,102.875L0.153,102.878Z" style="fill:white;"/>
                </g>
            </g>
        </g>
    </g>
</svg>
